<svg xmlns="http://www.w3.org/2000/svg" xmlns:xlink="http://www.w3.org/1999/xlink" version="1.1" width="1400" height="350" viewBox="0 0 1400 350" xml:space="preserve">
<desc>Created with Fabric.js 3.5.0</desc>
<defs>
</defs>
<rect x="0" y="0" width="100%" height="100%" fill="none"/>
<g transform="matrix(5.5432 0 0 5.5432 499.9969 166.7915)" id="598528">
<g style="" vector-effect="non-scaling-stroke">
		<g transform="matrix(1 0 0 1 -57 0)" id="466228">
<rect style="stroke: none; stroke-width: 1; stroke-dasharray: none; stroke-linecap: butt; stroke-dashoffset: 0; stroke-linejoin: miter; stroke-miterlimit: 4; is-custom-font: none; font-file-url: none; fill: rgb(0,74,173); fill-rule: nonzero; opacity: 1;" x="-25" y="-25" rx="10" ry="10" width="50" height="50"/>
</g>
		<g transform="matrix(1 0 0 1 -59.6778 -1.0235)" id="449420">
<path style="stroke: none; stroke-width: 1; stroke-dasharray: none; stroke-linecap: butt; stroke-dashoffset: 0; stroke-linejoin: miter; stroke-miterlimit: 4; is-custom-font: none; font-file-url: none; fill: rgb(255,255,255); fill-rule: nonzero; opacity: 1;" transform=" translate(-22.3222, -23.9765)" d="M 26.0039 9.5625 H 31.8633 V 29.25 C 31.8633 31.0599 31.4596 32.6615 30.6523 34.0547 C 29.8581 35.4349 28.7318 36.5026 27.2734 37.2578 C 25.8151 38.013 24.168 38.3906 22.332 38.3906 C 19.3242 38.3906 16.9805 37.6289 15.3008 36.1055 C 13.6211 34.569 12.7812 32.401 12.7812 29.6016 H 18.6797 C 18.6797 30.9948 18.9727 32.0234 19.5586 32.6875 C 20.1445 33.3516 21.069 33.6836 22.332 33.6836 C 23.4518 33.6836 24.3438 33.2995 25.0078 32.5312 C 25.6719 31.763 26.0039 30.6693 26.0039 29.25 V 9.5625 Z" stroke-linecap="round"/>
</g>
</g>
</g>
<g transform="matrix(1 0 0 1 898.8785 166.2925)" style="" id="855404">
		
<path xml:space="preserve" font-family="Cabin" font-size="155" font-style="normal" font-weight="bold" style="stroke: none; stroke-width: 0; stroke-dasharray: none; stroke-linecap: butt; stroke-dashoffset: 0; stroke-linejoin: miter; stroke-miterlimit: 4; is-custom-font: none; font-file-url: none; fill: rgb(0,74,173); fill-rule: nonzero; opacity: 1; white-space: pre;" d="M-463.30 75.35L-468.88 75.35L-470.58 58.30Q-463.92 58.30-460.97 55.47Q-458.03 52.64-458.03 44.97L-458.03 44.97L-458.03-59.81L-438.19-59.81L-438.19 49.31Q-438.19 63.49-444.93 69.42Q-451.67 75.35-463.30 75.35L-463.30 75.35Z"/><path xml:space="preserve" font-family="Cabin" font-size="155" font-style="normal" font-weight="bold" style="stroke: none; stroke-width: 0; stroke-dasharray: none; stroke-linecap: butt; stroke-dashoffset: 0; stroke-linejoin: miter; stroke-miterlimit: 4; is-custom-font: none; font-file-url: none; fill: rgb(0,74,173); fill-rule: nonzero; opacity: 1; white-space: pre;" d="M-334.65 50.86L-334.65 50.86Q-350.15 50.86-362.24 43.85Q-374.33 36.83-381.22 24.16Q-388.12 11.49-388.12-5.56L-388.12-5.56Q-388.12-22.61-381.22-35.28Q-374.33-47.95-362.24-54.96Q-350.15-61.98-334.65-61.98L-334.65-61.98Q-319.15-61.98-307.06-54.96Q-294.97-47.95-288.07-35.28Q-281.17-22.61-281.17-5.56L-281.17-5.56Q-281.17 11.49-288.07 24.16Q-294.97 36.83-307.06 43.85Q-319.15 50.86-334.65 50.86ZM-334.65 31.64L-334.65 31.64Q-323.80 31.64-316.51 26.84Q-309.23 22.03-305.58 13.62Q-301.94 5.21-301.94-5.56L-301.94-5.56Q-301.94-16.33-305.58-24.74Q-309.23-33.15-316.51-37.95Q-323.80-42.76-334.65-42.76L-334.65-42.76Q-345.50-42.76-352.78-37.95Q-360.07-33.15-363.71-24.74Q-367.35-16.33-367.35-5.56L-367.35-5.56Q-367.35 5.21-363.71 13.62Q-360.07 22.03-352.78 26.84Q-345.50 31.64-334.65 31.64Z"/><path xml:space="preserve" font-family="Cabin" font-size="155" font-style="normal" font-weight="bold" style="stroke: none; stroke-width: 0; stroke-dasharray: none; stroke-linecap: butt; stroke-dashoffset: 0; stroke-linejoin: miter; stroke-miterlimit: 4; is-custom-font: none; font-file-url: none; fill: rgb(0,74,173); fill-rule: nonzero; opacity: 1; white-space: pre;" d="M-185.85 48.69L-231.11 48.69L-231.11-59.81L-190.19-59.81Q-174.45-59.81-166.82-53.10Q-159.19-46.40-159.19-33.61L-159.19-33.61Q-159.19-24.08-163.49-17.69Q-167.79-11.29-176.39-8.35L-176.39-8.35L-176.39-12.07Q-163.37-9.28-156.94-1.84Q-150.51 5.60-150.51 17.85L-150.51 17.85Q-150.51 32.49-159.96 40.59Q-169.42 48.69-185.85 48.69L-185.85 48.69ZM-211.27 0.49L-211.27 31.02L-188.79 31.02Q-180.65 31.02-175.81 27.69Q-170.97 24.36-170.97 15.68L-170.97 15.68Q-170.97 6.84-176.08 3.66Q-181.20 0.49-188.79 0.49L-188.79 0.49L-211.27 0.49ZM-211.27-42.14L-211.27-17.18L-193.13-17.18Q-185.92-17.18-182.32-20.13Q-178.72-23.07-178.72-29.58L-178.72-29.58Q-178.72-36.33-182.32-39.23Q-185.92-42.14-193.13-42.14L-193.13-42.14L-211.27-42.14Z"/><path xml:space="preserve" font-family="Cabin" font-size="155" font-style="normal" font-weight="bold" style="stroke: none; stroke-width: 0; stroke-dasharray: none; stroke-linecap: butt; stroke-dashoffset: 0; stroke-linejoin: miter; stroke-miterlimit: 4; is-custom-font: none; font-file-url: none; fill: rgb(0,74,173); fill-rule: nonzero; opacity: 1; white-space: pre;" d="M-91.76 48.69L-114.70 48.69L-88.97 9.94L-114.70-28.81L-91.76-28.81L-77.66-6.33L-64.64-28.81L-41.70-28.81L-67.43 9.94L-41.70 48.69L-64.64 48.69L-78.74 26.22L-91.76 48.69Z"/><path xml:space="preserve" font-family="Cabin" font-size="155" font-style="normal" font-weight="bold" style="stroke: none; stroke-width: 0; stroke-dasharray: none; stroke-linecap: butt; stroke-dashoffset: 0; stroke-linejoin: miter; stroke-miterlimit: 4; is-custom-font: none; font-file-url: none; fill: rgb(0,74,173); fill-rule: nonzero; opacity: 1; white-space: pre;" d="M20.77 86.20L1.55 86.20L1.55-28.81L17.05-28.81L20.77-15.94L15.04-17.96Q20.38-23.46 26.66-26.75Q32.94-30.05 42.01-30.05L42.01-30.05Q53.40-30.05 61.15-24.55Q68.90-19.04 72.89-9.90Q76.88-0.75 76.88 10.10L76.88 10.10Q76.88 20.95 72.89 30.09Q68.90 39.24 61.15 44.74Q53.40 50.24 42.01 50.24L42.01 50.24Q32.94 50.24 27.28 47.76Q21.62 45.28 15.81 39.86L15.81 39.86L20.77 35.98L20.77 86.20ZM39.06 34.43L39.06 34.43Q47.66 34.43 52.43 27.65Q57.20 20.87 57.20 10.10L57.20 10.10Q57.20-0.75 52.43-7.50Q47.66-14.24 39.06-14.24L39.06-14.24Q32.40-14.24 28.13-11.14Q23.87-8.04 21.85-2.57Q19.84 2.89 19.84 10.10L19.84 10.10Q19.84 17.30 21.85 22.77Q23.87 28.23 28.13 31.33Q32.40 34.43 39.06 34.43Z"/><path xml:space="preserve" font-family="Cabin" font-size="155" font-style="normal" font-weight="bold" style="stroke: none; stroke-width: 0; stroke-dasharray: none; stroke-linecap: butt; stroke-dashoffset: 0; stroke-linejoin: miter; stroke-miterlimit: 4; is-custom-font: none; font-file-url: none; fill: rgb(0,74,173); fill-rule: nonzero; opacity: 1; white-space: pre;" d="M149.73 50.24L142.76 50.24Q135.86 50.24 131.48 47.49Q127.10 44.74 125.01 40.13Q122.92 35.52 122.92 29.94L122.92 29.94L122.92-67.56L142.14-67.56L142.14 22.03Q142.14 28.23 142.87 30.83Q143.61 33.42 145.62 33.93Q147.64 34.43 151.44 34.43L151.44 34.43L149.73 50.24Z"/><path xml:space="preserve" font-family="Cabin" font-size="155" font-style="normal" font-weight="bold" style="stroke: none; stroke-width: 0; stroke-dasharray: none; stroke-linecap: butt; stroke-dashoffset: 0; stroke-linejoin: miter; stroke-miterlimit: 4; is-custom-font: none; font-file-url: none; fill: rgb(0,74,173); fill-rule: nonzero; opacity: 1; white-space: pre;" d="M230.80 50.24L230.80 50.24Q218.16 50.24 209.25 44.74Q200.34 39.24 195.65 30.09Q190.96 20.95 190.96 10.10L190.96 10.10Q190.96-0.83 195.65-10.05Q200.34-19.28 209.25-24.82Q218.16-30.36 230.80-30.36L230.80-30.36Q243.43-30.36 252.34-24.82Q261.25-19.28 265.94-10.05Q270.63-0.83 270.63 10.10L270.63 10.10Q270.63 20.95 265.94 30.09Q261.25 39.24 252.34 44.74Q243.43 50.24 230.80 50.24ZM230.80 34.43L230.80 34.43Q240.48 34.43 245.71 27.65Q250.95 20.87 250.95 10.10L250.95 10.10Q250.95-0.83 245.71-7.69Q240.48-14.55 230.80-14.55L230.80-14.55Q221.19-14.55 215.92-7.69Q210.65-0.83 210.65 10.10L210.65 10.10Q210.65 20.87 215.92 27.65Q221.19 34.43 230.80 34.43Z"/><path xml:space="preserve" font-family="Cabin" font-size="155" font-style="normal" font-weight="bold" style="stroke: none; stroke-width: 0; stroke-dasharray: none; stroke-linecap: butt; stroke-dashoffset: 0; stroke-linejoin: miter; stroke-miterlimit: 4; is-custom-font: none; font-file-url: none; fill: rgb(0,74,173); fill-rule: nonzero; opacity: 1; white-space: pre;" d="M335.89 48.69L316.67 48.69L316.67-28.81L334.65-28.81L335.11-20.59Q338.06-23.85 343.40-27.10Q348.75-30.36 355.11-30.36L355.11-30.36Q356.97-30.36 358.52-30.05L358.52-30.05L357.12-11.14Q355.42-11.60 353.75-11.76Q352.08-11.91 350.46-11.91L350.46-11.91Q345.57-11.91 341.54-9.67Q337.51-7.42 335.89-4.16L335.89-4.16L335.89 48.69Z"/><path xml:space="preserve" font-family="Cabin" font-size="155" font-style="normal" font-weight="bold" style="stroke: none; stroke-width: 0; stroke-dasharray: none; stroke-linecap: butt; stroke-dashoffset: 0; stroke-linejoin: miter; stroke-miterlimit: 4; is-custom-font: none; font-file-url: none; fill: rgb(0,74,173); fill-rule: nonzero; opacity: 1; white-space: pre;" d="M436.48 50.24L436.48 50.24Q422.45 50.24 413.11 44.62Q403.78 39.00 399.13 29.74Q394.48 20.48 394.48 9.48L394.48 9.48Q394.48-1.14 398.85-10.13Q403.23-19.12 411.68-24.58Q420.13-30.05 432.30-30.05L432.30-30.05Q443.46-30.05 450.90-25.48Q458.34-20.90 462.06-13.27Q465.78-5.64 465.78 3.59L465.78 3.59Q465.78 6.14 465.47 8.74Q465.16 11.34 464.54 14.13L464.54 14.13L414.47 14.13Q415.56 21.33 419.00 25.79Q422.45 30.25 427.45 32.34Q432.45 34.43 438.19 34.43L438.19 34.43Q444.93 34.43 450.74 32.69Q456.55 30.94 461.44 28.08L461.44 28.08L462.37 44.35Q457.95 46.68 451.36 48.46Q444.77 50.24 436.48 50.24ZM414.94 1.11L414.94 1.11L446.25 1.11Q446.25-2.38 444.93-5.91Q443.61-9.43 440.55-11.84Q437.49-14.24 432.30-14.24L432.30-14.24Q424.86-14.24 420.59-9.90Q416.33-5.56 414.94 1.11Z"/></g>
</svg>
